<svg width="8.4375rem" height="2.5625rem" viewBox="0 0 135 41" fill="none" xmlns="http://www.w3.org/2000/svg"><path d="M130.1 40.6684L4.80043 40.6684C4.16773 40.6769 3.53976 40.5585 2.95357 40.3203C2.36738 40.082 1.83485 39.7288 1.38744 39.2814C0.940015 38.834 0.586767 38.3014 0.348545 37.7152C0.110322 37.1291 -0.00804732 36.5011 0.000424656 35.8684L0.000424656 5.46839C-0.00804732 4.8357 0.110322 4.20773 0.348545 3.62154C0.586767 3.03535 0.940015 2.50282 1.38744 2.0554C1.83485 1.60798 2.36738 1.25474 2.95357 1.01651C3.53976 0.778291 4.16773 0.659921 4.80043 0.668393L130.2 0.668393C131.473 0.668393 132.694 1.17411 133.595 2.07428C134.495 2.97446 135 4.19535 135 5.46839V35.9684C134.957 37.2358 134.421 38.4361 133.505 39.3139C132.59 40.1918 131.369 40.6777 130.1 40.6684Z" fill="#A6A6A6"></path><path d="M130.1 39.6685L4.8 39.6685C3.79218 39.6685 2.82563 39.2681 2.11299 38.5555C1.40036 37.8428 1 36.8763 1 35.8685L1 5.46846C1 4.46063 1.40036 3.49409 2.11299 2.78145C2.82563 2.06881 3.79218 1.66846 4.8 1.66846L130.2 1.66846C131.208 1.66846 132.174 2.06881 132.887 2.78145C133.6 3.49409 134 4.46063 134 5.46846V35.9685C133.94 36.9648 133.504 37.9013 132.78 38.5883C132.056 39.2752 131.098 39.6614 130.1 39.6685Z" fill="black"></path><path d="M47.3697 10.8684C47.3925 11.2316 47.3423 11.5957 47.2221 11.9392C47.1019 12.2827 46.914 12.5986 46.6697 12.8684C46.3089 13.2321 45.8639 13.5011 45.3741 13.6515C44.8843 13.8018 44.365 13.8288 43.8623 13.7301C43.3595 13.6314 42.889 13.41 42.4924 13.0856C42.0959 12.7612 41.7856 12.3439 41.5892 11.8707C41.3928 11.3975 41.3163 10.8831 41.3666 10.3733C41.4168 9.86339 41.5923 9.37385 41.8773 8.94813C42.1623 8.52241 42.5481 8.1737 43.0004 7.93299C43.4527 7.69228 43.9574 7.56704 44.4697 7.56838C44.8877 7.57266 45.2989 7.67544 45.6697 7.86838C46.0266 8.01761 46.3372 8.25923 46.5697 8.56838L46.0697 9.06838C45.8805 8.82985 45.6358 8.64131 45.3568 8.51928C45.0779 8.39725 44.7733 8.34544 44.4697 8.36838C44.1673 8.35557 43.866 8.41197 43.5887 8.53328C43.3115 8.65459 43.0655 8.83761 42.8697 9.06838C42.6294 9.27823 42.4411 9.54101 42.3197 9.836C42.1982 10.131 42.1469 10.4502 42.1697 10.7684C42.1469 11.0866 42.1982 11.4058 42.3197 11.7008C42.4411 11.9958 42.6294 12.2585 42.8697 12.4684C43.3051 12.8812 43.8711 13.1288 44.4697 13.1684C44.7869 13.1818 45.1032 13.1262 45.3967 13.0053C45.6902 12.8844 45.954 12.7012 46.1697 12.4684C46.3297 12.3124 46.4564 12.1257 46.5423 11.9195C46.6282 11.7132 46.6716 11.4918 46.6697 11.2684H44.4697V10.4684H47.3697V10.8684ZM51.9697 8.36838H49.2697V10.2684L51.7697 10.2684V10.9684L49.2697 10.9684V12.8684H51.9697V13.6684H48.4697V7.66838H51.9697V8.36838ZM55.2697 13.6684H54.4697V8.36838H52.7697V7.66838H56.9697V8.36838H55.2697V13.6684ZM59.8697 13.6684V7.66838H60.6697V13.6684H59.8697ZM64.0697 13.6684H63.2697V8.36838L61.5697 8.36838V7.66838H65.6697V8.36838H63.9697V13.6684H64.0697ZM73.5627 12.8684C73.0561 13.3803 72.3877 13.7007 71.6713 13.7748C70.9549 13.849 70.235 13.6724 69.6342 13.2752C69.0335 12.878 68.5891 12.2846 68.3769 11.5964C68.1647 10.9082 68.1977 10.1677 68.4704 9.50108C68.7431 8.8345 69.2386 8.28314 69.8723 7.94099C70.5061 7.59884 71.2389 7.4871 71.9458 7.6248C72.6527 7.76251 73.29 8.14115 73.7489 8.69615C74.2079 9.25116 74.4602 9.94818 74.4627 10.6684C74.474 11.0775 74.3999 11.4845 74.2449 11.8634C74.0899 12.2422 73.8576 12.5845 73.5627 12.8684ZM69.7627 12.3684C70.1867 12.798 70.7594 13.0485 71.3627 13.0684C71.6651 13.0812 71.9664 13.0248 72.2437 12.9035C72.521 12.7822 72.7669 12.5992 72.9627 12.3684C73.4111 11.9162 73.6628 11.3052 73.6627 10.6684C73.6856 10.3502 73.6343 10.031 73.5128 9.736C73.3913 9.441 73.203 9.17823 72.9627 8.96838C72.5387 8.53878 71.966 8.28823 71.3627 8.26838C71.0603 8.25557 70.759 8.31197 70.4817 8.43328C70.2045 8.55459 69.9585 8.73761 69.7627 8.96838C69.3143 9.42053 69.0627 10.0316 69.0627 10.6684C69.0399 10.9866 69.0912 11.3058 69.2127 11.6008C69.3341 11.8958 69.5224 12.1585 69.7627 12.3684ZM75.5627 13.6684V7.66838H76.4627L79.3627 12.3684V7.66838H80.1627V13.6684H79.3627L76.2627 8.76838V13.6684H75.5627Z" fill="white" stroke="white" stroke-width="0.2" stroke-miterlimit="10"></path><path d="M68.0503 22.4683C67.4821 22.4553 66.9171 22.5576 66.3895 22.7691C65.862 22.9806 65.3827 23.2969 64.9808 23.6988C64.5789 24.1007 64.2627 24.5799 64.0512 25.1075C63.8397 25.6351 63.7373 26.2 63.7503 26.7683C63.7458 27.3342 63.8539 27.8954 64.0684 28.4191C64.2829 28.9429 64.5995 29.4187 64.9997 29.8189C65.3999 30.2191 65.8757 30.5357 66.3994 30.7502C66.9232 30.9647 67.4844 31.0728 68.0503 31.0683C68.6186 31.0813 69.1835 30.9789 69.7111 30.7674C70.2387 30.5559 70.7179 30.2397 71.1198 29.8377C71.5217 29.4358 71.838 28.9566 72.0495 28.429C72.261 27.9015 72.3633 27.3365 72.3503 26.7683C72.3718 26.1978 72.2752 25.6291 72.0667 25.0977C71.8582 24.5663 71.5423 24.0836 71.1386 23.68C70.735 23.2763 70.2523 22.9603 69.7209 22.7518C69.1895 22.5433 68.6208 22.4468 68.0503 22.4683ZM68.0503 29.2683C67.396 29.2169 66.7851 28.9207 66.3395 28.4388C65.8939 27.9568 65.6464 27.3246 65.6464 26.6683C65.6464 26.0119 65.8939 25.3797 66.3395 24.8978C66.7851 24.4158 67.396 24.1196 68.0503 24.0683C68.3821 24.0702 68.71 24.1404 69.0135 24.2744C69.3171 24.4083 69.5898 24.6033 69.8149 24.8471C70.04 25.0909 70.2125 25.3784 70.3218 25.6917C70.4311 26.005 70.4749 26.3374 70.4503 26.6683C70.4663 26.9972 70.4166 27.3261 70.3041 27.6357C70.1916 27.9452 70.0187 28.2293 69.7953 28.4713C69.5719 28.7133 69.3025 28.9084 69.0029 29.0453C68.7033 29.1821 68.3795 29.2579 68.0503 29.2683ZM58.7573 22.4683C58.1891 22.4553 57.6241 22.5576 57.0965 22.7691C56.569 22.9806 56.0897 23.2969 55.6878 23.6988C55.2859 24.1007 54.9697 24.5799 54.7582 25.1075C54.5467 25.6351 54.4443 26.2 54.4573 26.7683C54.4528 27.3342 54.5609 27.8954 54.7754 28.4191C54.9899 28.9429 55.3065 29.4187 55.7067 29.8189C56.1069 30.2191 56.5827 30.5357 57.1064 30.7502C57.6302 30.9647 58.1914 31.0728 58.7573 31.0683C59.3256 31.0813 59.8905 30.9789 60.4181 30.7674C60.9457 30.5559 61.4249 30.2397 61.8268 29.8377C62.2287 29.4358 62.545 28.9566 62.7565 28.429C62.968 27.9015 63.0703 27.3365 63.0573 26.7683C63.0788 26.1978 62.9822 25.6291 62.7737 25.0977C62.5652 24.5663 62.2493 24.0836 61.8456 23.68C61.442 23.2763 60.9593 22.9603 60.4279 22.7518C59.8965 22.5433 59.3278 22.4468 58.7573 22.4683ZM58.7573 29.2683C58.103 29.2169 57.4921 28.9207 57.0465 28.4388C56.6009 27.9568 56.3534 27.3246 56.3534 26.6683C56.3534 26.0119 56.6009 25.3797 57.0465 24.8978C57.4921 24.4158 58.103 24.1196 58.7573 24.0683C59.0891 24.0702 59.417 24.1404 59.7205 24.2744C60.0241 24.4083 60.2968 24.6033 60.5219 24.8471C60.747 25.0909 60.9195 25.3784 61.0288 25.6917C61.1381 26.005 61.1819 26.3374 61.1573 26.6683C61.1733 26.9972 61.1236 27.3261 61.0111 27.6357C60.8986 27.9452 60.7257 28.2293 60.5023 28.4713C60.2789 28.7133 60.0095 28.9084 59.7099 29.0453C59.4103 29.1821 59.0865 29.2579 58.7573 29.2683ZM47.6703 23.7683V25.5683H51.9703C51.9083 26.4264 51.5555 27.2377 50.9703 27.8683C50.5398 28.301 50.0243 28.64 49.4564 28.8637C48.8884 29.0874 48.2803 29.1911 47.6703 29.1683C47.0428 29.1748 46.4205 29.0543 45.8407 28.8141C45.2609 28.5739 44.7357 28.219 44.2967 27.7706C43.8576 27.3222 43.5138 26.7896 43.2859 26.2049C43.0579 25.6202 42.9506 24.9955 42.9703 24.3683C42.959 23.7432 43.0722 23.1222 43.3031 22.5413C43.5341 21.9604 43.8783 21.4312 44.3156 20.9845C44.753 20.5378 45.2748 20.1826 45.8507 19.9395C46.4267 19.6963 47.0452 19.5701 47.6703 19.5683C48.8931 19.5793 50.0686 20.0423 50.9703 20.8683L52.2703 19.5683C51.0643 18.4015 49.4483 17.7551 47.7703 17.7683C46.0139 17.7791 44.331 18.4748 43.0798 19.7074C41.8285 20.94 41.1075 22.6122 41.0703 24.3683C41.1075 26.1243 41.8285 27.7965 43.0798 29.0291C44.331 30.2617 46.0139 30.9575 47.7703 30.9683C48.6304 31.0164 49.4904 30.8707 50.2866 30.5418C51.0828 30.213 51.7949 29.7094 52.3703 29.0683C53.4256 27.9271 53.9989 26.4223 53.9703 24.8683C53.9914 24.4987 53.9577 24.128 53.8703 23.7683H47.6703ZM93.0363 25.1683C92.791 24.4 92.3126 23.7273 91.6674 23.2434C91.0223 22.7596 90.2425 22.4886 89.4363 22.4683C88.886 22.4707 88.342 22.5859 87.8379 22.8068C87.3338 23.0276 86.8804 23.3495 86.5055 23.7524C86.1307 24.1554 85.8424 24.6309 85.6585 25.1496C85.4746 25.6683 85.399 26.2192 85.4363 26.7683C85.4208 27.3287 85.518 27.8866 85.7223 28.4088C85.9266 28.9309 86.2338 29.4067 86.6256 29.8078C87.0174 30.2089 87.4858 30.5272 88.003 30.7437C88.5202 30.9603 89.0756 31.0706 89.6363 31.0683C90.3331 31.0751 91.0201 30.9042 91.6325 30.5718C92.2449 30.2393 92.7625 29.7563 93.1363 29.1683L91.7363 28.1683C91.5211 28.5339 91.2142 28.837 90.8458 29.0474C90.4775 29.2579 90.0606 29.3685 89.6363 29.3683C89.1956 29.3911 88.7584 29.2788 88.3831 29.0465C88.0078 28.8142 87.7124 28.4729 87.5363 28.0683L93.2363 25.6683L93.0363 25.1683ZM87.2363 26.5683C87.2153 25.9496 87.4313 25.3463 87.8402 24.8817C88.2491 24.417 88.82 24.126 89.4363 24.0683C89.7599 24.0573 90.0802 24.1355 90.3624 24.2942C90.6445 24.4529 90.8777 24.6861 91.0363 24.9683L87.2363 26.5683ZM82.5363 30.6683H84.4363V18.1683L82.5363 18.1683V30.6683ZM79.5363 23.3683C78.9318 22.7442 78.105 22.3847 77.2363 22.3683C76.1309 22.4197 75.0879 22.8954 74.3242 23.6963C73.5606 24.4972 73.1351 25.5617 73.1363 26.6683C73.1284 27.2136 73.2283 27.7552 73.4303 28.2618C73.6323 28.7684 73.9324 29.2301 74.3134 29.6204C74.6944 30.0107 75.1487 30.3218 75.6503 30.536C76.152 30.7501 76.6909 30.8631 77.2363 30.8683C77.6537 30.8717 78.0668 30.784 78.4468 30.6113C78.8268 30.4386 79.1645 30.185 79.4363 29.8683H79.5363V30.4683C79.5969 31.0223 79.4516 31.5793 79.1281 32.0331C78.8046 32.487 78.3255 32.806 77.7821 32.9296C77.2386 33.0531 76.6687 32.9724 76.1808 32.703C75.6929 32.4335 75.3212 31.9941 75.1363 31.4683L73.5363 32.1683C73.8546 32.9118 74.3846 33.5453 75.0603 33.9899C75.736 34.4344 76.5275 34.6703 77.3363 34.6683C79.5363 34.6683 81.3363 33.3683 81.3363 30.2683V22.6683L79.5363 22.6683V23.3683ZM77.3363 29.2683C76.682 29.2169 76.0711 28.9207 75.6255 28.4388C75.1799 27.9568 74.9324 27.3246 74.9324 26.6683C74.9324 26.0119 75.1799 25.3797 75.6255 24.8978C76.0711 24.4158 76.682 24.1196 77.3363 24.0683C77.6603 24.0813 77.9783 24.1598 78.2712 24.2989C78.5641 24.438 78.8259 24.6349 79.0407 24.8778C79.2556 25.1207 79.4191 25.4045 79.5214 25.7122C79.6238 26.0199 79.6629 26.3451 79.6363 26.6683C79.6629 26.9914 79.6238 27.3166 79.5214 27.6243C79.4191 27.932 79.2556 28.2158 79.0407 28.4587C78.8259 28.7016 78.5641 28.8985 78.2712 29.0376C77.9783 29.1767 77.6603 29.2552 77.3363 29.2683ZM101.718 18.1683H97.2183V30.6683H99.1183V25.9683H101.718C102.753 25.9683 103.745 25.5574 104.476 24.826C105.207 24.0946 105.618 23.1026 105.618 22.0683C105.618 21.0339 105.207 20.0419 104.476 19.3105C103.745 18.5792 102.753 18.1683 101.718 18.1683ZM101.818 24.1683H99.1183V19.8683H101.818C102.385 19.8677 102.93 20.0857 103.34 20.4769C103.749 20.8681 103.993 21.4023 104.018 21.9683C103.997 22.5448 103.758 23.0918 103.35 23.4998C102.942 23.9077 102.395 24.1465 101.818 24.1683ZM113.309 22.3683C112.632 22.3136 111.953 22.466 111.364 22.8053C110.775 23.1446 110.302 23.6547 110.009 24.2683L111.709 24.9683C111.875 24.6698 112.124 24.4259 112.426 24.2662C112.728 24.1064 113.069 24.0377 113.409 24.0683C113.883 24.0323 114.353 24.1775 114.724 24.4744C115.096 24.7714 115.34 25.198 115.409 25.6683V25.7683C114.828 25.4447 114.175 25.2728 113.509 25.2683C111.709 25.2683 109.909 26.2683 109.909 28.0683C109.926 28.4567 110.019 28.8381 110.185 29.19C110.35 29.5419 110.584 29.8574 110.872 30.118C111.161 30.3787 111.499 30.5792 111.865 30.708C112.232 30.8368 112.621 30.8913 113.009 30.8683C113.478 30.8842 113.943 30.7827 114.362 30.5731C114.781 30.3635 115.141 30.0525 115.409 29.6683H115.509V30.6683H117.309V25.8683C117.237 24.8761 116.776 23.9525 116.028 23.2974C115.279 22.6424 114.302 22.3085 113.309 22.3683ZM113.109 29.2683C112.509 29.2683 111.609 28.9683 111.609 28.1683C111.609 27.1683 112.709 26.8683 113.609 26.8683C114.199 26.87 114.781 27.0069 115.309 27.2683C115.233 27.8059 114.972 28.3 114.57 28.6652C114.168 29.0304 113.652 29.2437 113.109 29.2683ZM123.609 22.6683L121.509 28.0683H121.409L119.209 22.6683L117.209 22.6683L120.509 30.2683L118.609 34.4683H120.509L125.609 22.6683H123.609ZM106.821 30.6683H108.721V18.1683H106.821V30.6683Z" fill="white"></path><g filter="url(#filter0_i)"><path d="M26.9546 25.1249L11.2509 34.1914C10.8719 34.4102 10.457 34.4425 10.0879 34.3353L22.8548 20.7681L26.9546 25.1249Z" fill="url(#paint0_linear)"></path><path d="M26.9546 16.4114L22.8548 20.7682L10.0879 7.20095C10.457 7.09378 10.8719 7.126 11.2509 7.34481L26.9546 16.4114Z" fill="url(#paint1_linear)"></path><path d="M9 8.64407V32.8928C9 33.6099 9.48212 34.16 10.087 34.3357L22.8539 20.7684L10.087 7.20117C9.48212 7.37683 9 7.92694 9 8.64407Z" fill="url(#paint2_linear)"></path><path d="M26.9533 16.3931L22.8535 20.7499L26.9533 25.1067L32.2496 22.049C33.2496 21.4716 33.2496 20.0282 32.2496 19.4509L26.9533 16.3931Z" fill="url(#paint3_linear)"></path></g><defs><filter id="filter0_i" x="9" y="7.1416" width="23.9996" height="27.253" filterUnits="userSpaceOnUse" color-interpolation-filters="sRGB"><feFlood flood-opacity="0" result="BackgroundImageFix"></feFlood><feBlend mode="normal" in="SourceGraphic" in2="BackgroundImageFix" result="shape"></feBlend><feColorMatrix in="SourceAlpha" type="matrix" values="0 0 0 0 0 0 0 0 0 0 0 0 0 0 0 0 0 0 127 0" result="hardAlpha"></feColorMatrix><feOffset dx="-0.25" dy="-0.25"></feOffset><feComposite in2="hardAlpha" operator="arithmetic" k2="-1" k3="1"></feComposite><feColorMatrix type="matrix" values="0 0 0 0 0 0 0 0 0 0 0 0 0 0 0 0 0 0 0.2 0"></feColorMatrix><feBlend mode="normal" in2="shape" result="effect1_innerShadow"></feBlend></filter><linearGradient id="paint0_linear" x1="24.6607" y1="20.4547" x2="7.42044" y2="-7.19462" gradientUnits="userSpaceOnUse"><stop stop-color="#FF3A44"></stop><stop offset="1" stop-color="#C31162"></stop></linearGradient><linearGradient id="paint1_linear" x1="6.95068" y1="43.9471" x2="14.6485" y2="31.5558" gradientUnits="userSpaceOnUse"><stop stop-color="#32A071"></stop><stop offset="0.068" stop-color="#2DA771"></stop><stop offset="0.476" stop-color="#15CF74"></stop><stop offset="0.801" stop-color="#06E775"></stop><stop offset="1" stop-color="#00F076"></stop></linearGradient><linearGradient id="paint2_linear" x1="21.5794" y1="35.204" x2="0.347522" y2="29.5613" gradientUnits="userSpaceOnUse"><stop stop-color="#00A0FF"></stop><stop offset="0.007" stop-color="#00A1FF"></stop><stop offset="0.26" stop-color="#00BEFF"></stop><stop offset="0.512" stop-color="#00D2FF"></stop><stop offset="0.76" stop-color="#00DFFF"></stop><stop offset="1" stop-color="#00E3FF"></stop></linearGradient><linearGradient id="paint3_linear" x1="33.7808" y1="22.7453" x2="9.59262" y2="22.7453" gradientUnits="userSpaceOnUse"><stop stop-color="#FFE000"></stop><stop offset="0.409" stop-color="#FFBD00"></stop><stop offset="0.775" stop-color="#FFA500"></stop><stop offset="1" stop-color="#FF9C00"></stop></linearGradient></defs></svg>