<svg width="24" height="24" viewBox="0 0 24 24" fill="none" xmlns="http://www.w3.org/2000/svg"><g clip-path="url(#clip0_829_5206)"><path d="M13.75 9.75065L8.42306 11.5263C7.96721 11.6783 7.96721 12.323 8.42306 12.475L13.75 14.2506L15.5257 19.5776C15.6776 20.0335 16.3224 20.0335 16.4744 19.5776L18.25 14.2506L23.577 12.475C24.0329 12.323 24.0329 11.6783 23.577 11.5263L18.25 9.75065L16.4744 4.42367C16.3224 3.96783 15.6776 3.96783 15.5257 4.42367L13.75 9.75065Z" fill="url(#paint0_linear_829_5206)"></path><path d="M4.25004 4.25065L0.423063 5.52631C-0.0327853 5.67826 -0.0327853 6.32304 0.423063 6.47499L4.25004 7.75065L5.5257 11.5776C5.67765 12.0335 6.32243 12.0335 6.47438 11.5776L7.75004 7.75065L11.577 6.47499C12.0329 6.32304 12.0329 5.67826 11.577 5.52631L7.75004 4.25065L6.47438 0.423673C6.32243 -0.0321749 5.67765 -0.0321749 5.5257 0.423673L4.25004 4.25065Z" fill="url(#paint1_linear_829_5206)"></path><path d="M6.50004 17.5006L3.42306 18.5263C2.96721 18.6783 2.96721 19.323 3.42306 19.475L6.50004 20.5006L7.5257 23.5776C7.67765 24.0335 8.32243 24.0335 8.47438 23.5776L9.50004 20.5006L12.577 19.475C13.0329 19.323 13.0329 18.6783 12.577 18.5263L9.50004 17.5006L8.47438 14.4237C8.32243 13.9678 7.67765 13.9678 7.5257 14.4237L6.50004 17.5006Z" fill="url(#paint2_linear_829_5206)"></path></g><defs><linearGradient id="paint0_linear_829_5206" x1="23.9189" y1="19.9195" x2="8.08118" y2="4.08179" gradientUnits="userSpaceOnUse"><stop stop-color="#FF00A4"></stop><stop offset="1" stop-color="#FF00A4" stop-opacity="0.3"></stop></linearGradient><linearGradient id="paint1_linear_829_5206" x1="11.9189" y1="11.9195" x2="0.0811787" y2="0.0817852" gradientUnits="userSpaceOnUse"><stop stop-color="#A3A3A3"></stop><stop offset="1" stop-color="#A3A3A3" stop-opacity="0.3"></stop></linearGradient><linearGradient id="paint2_linear_829_5206" x1="13.9027" y1="23.9195" x2="4.06495" y2="14.0818" gradientUnits="userSpaceOnUse"><stop stop-color="#00D170"></stop><stop offset="1" stop-color="#00D170" stop-opacity="0.3"></stop></linearGradient><clipPath id="clip0_829_5206"><rect width="24" height="24" fill="white" transform="translate(0 0.000610352)"></rect></clipPath></defs></svg>