<svg width="16" height="16" viewBox="0 0 16 16" fill="none" xmlns="http://www.w3.org/2000/svg"><g><path d="M8 0.5C6.83879 0.5 5.70922 0.775372 4.86182 1.4812C3.99866 2.20015 3.5 3.30562 3.5 4.80769C3.5 4.86509 3.50072 4.92237 3.50216 4.9795C2.82465 5.22522 2.5 5.56539 2.5 6H13.5C13.5 5.56539 13.1754 5.22523 12.4978 4.9795C12.4993 4.92237 12.5 4.86509 12.5 4.80769C12.5 3.30562 12.0013 2.20015 11.1382 1.4812C10.2908 0.775372 9.16121 0.5 8 0.5Z" fill="#A3A3A3"></path><path d="M12.1378 7H3.86223C4.07108 7.61149 4.3636 8.17482 4.72232 8.66287C5.00817 9.01318 5.32959 9.34734 5.45457 9.47064C6.1669 10.1035 7.04125 10.5 8 10.5C8.95875 10.5 9.8331 10.1035 10.5454 9.47064C10.9598 9.05615 11.2062 8.75942 11.2777 8.66287C11.6364 8.17482 11.9289 7.61149 12.1378 7Z" fill="#A3A3A3"></path><path d="M13.6296 11.2146C13.9369 12.1856 14 13.2828 14 14.2687V14.5C14 14.7761 13.7761 15 13.5 15H11.5048L12 15V13C12 12.8106 11.893 12.6375 11.7236 12.5528L10.7236 12.0528C10.6542 12.0181 10.5776 12 10.5 12H5.5C5.42238 12 5.34582 12.0181 5.27639 12.0528L4.27639 12.5528C4.107 12.6375 4 12.8106 4 13V15L4.49517 15H2.5C2.22386 15 2 14.7761 2 14.5V14.2687C2 13.2829 2.0631 12.1856 2.3704 11.2146C2.62982 10.3949 3.07346 9.63628 3.81981 9.11988C3.85155 9.16541 3.8838 9.21046 3.91655 9.25501C3.92654 9.2686 3.93687 9.28193 3.94753 9.295C4.26156 9.67985 4.60872 10.0408 4.75228 10.1824C4.76467 10.1947 4.77738 10.2066 4.79039 10.2181C5.65039 10.9822 6.75293 11.4999 8 11.4999C9.24707 11.4999 10.3496 10.9822 11.2096 10.2181C11.2244 10.205 11.2387 10.1915 11.2527 10.1775C11.6875 9.74254 11.9706 9.40748 12.0815 9.25762L12.0835 9.25501C12.1162 9.21045 12.1485 9.1654 12.1802 9.11987C12.9266 9.63627 13.3702 10.3949 13.6296 11.2146Z" fill="#A3A3A3"></path><path d="M5 15L4.50483 15H11.4952L11 15V13.309L10.382 13H5.61803L5 13.309V15Z" fill="#A3A3A3"></path></g></svg>