<svg xmlns="http://www.w3.org/2000/svg" width="24" height="24" fill="none" viewBox="0 0 24 24"><g clip-path="url(#clip0)"><path fill="gray" fill-rule="evenodd" d="M9.1 19.788c-.704-.085-1.747-1.258-2.636-1.238-.85.02-.609.758-.609.758.754 1.258 1.958 1.074 3.246.48zm8.629-5.407c-.472.749-2.35 1.3-2.8 2.312-.431.968.53 1.09.53 1.09 1.819-.18 2.253-1.634 2.27-3.402zm-8.639-.922c1.417-.12 3.588-2.392 5.364-2.288 1.698.1 1.164 1.56 1.164 1.56-1.599 2.463-3.993 2.009-6.528.728zm8.303-6.85c1.416.12 3.588 2.392 5.364 2.288 1.697-.1 1.163-1.56 1.163-1.56-1.598-2.462-3.993-2.008-6.527-.728z" clip-rule="evenodd"></path><path fill="#B3B3B3" fill-rule="evenodd" d="M13.343 18.046c-1.324-1-2.92-.041-3.672.767-2.274 2.442-3.823.469-3.823.469s.795 2.538 3.908 2.58c.936.012 1.76-.15 2.862-1.089.852-.726 1.476-2.158.725-2.727zm4.684-9.375c-1.834.959-1.603 3.269-1.093 4.548 1.54 3.864-1.51 4.558-1.51 4.558s3.284.457 4.991-3.03c.513-1.048.771-2.063.299-3.805-.365-1.347-1.646-2.815-2.687-2.27zm-17.299 1c2.72-1.908 5.844.126 7.292 1.796 4.374 5.048 7.615 1.212 7.615 1.212s-1.772 5.02-8.003 4.882c-1.874-.042-3.513-.424-5.649-2.383-1.652-1.514-2.8-4.424-1.255-5.507zm8.302.727c2.72 1.907 5.845-.127 7.292-1.797 4.375-5.048 7.615-1.212 7.615-1.212s-1.772-5.02-8.003-4.881c-1.874.042-3.512.423-5.649 2.382-1.651 1.515-2.799 4.425-1.255 5.508z" clip-rule="evenodd"></path><path fill="#fff" d="M0 6.005a6 6 0 1112 0 6 6 0 01-12 0z"></path><path fill="url(#paint0_linear)" fill-rule="evenodd" d="M6 1.005a5 5 0 100 10 5 5 0 000-10zm.366 1.22L3.684 6.148a.5.5 0 00.506.773l.907-.173a.5.5 0 01.557.68l-.78 1.917c-.108.269.25.477.43.248L8.18 5.91a.5.5 0 00-.487-.799l-.909.173a.5.5 0 01-.576-.622l.604-2.23c.074-.272-.288-.44-.447-.207z" clip-rule="evenodd"></path></g><defs><linearGradient id="paint0_linear" x1="1" x2="11" y1="1.005" y2="11.005" gradientUnits="userSpaceOnUse"><stop stop-color="#fff"></stop><stop offset="1" stop-color="#8C8C8C"></stop></linearGradient><clipPath id="clip0"><path fill="#fff" d="M0 0H24V24H0z" transform="translate(0 .005)"></path></clipPath></defs></svg>