<svg width="36" height="36" viewBox="0 0 36 37" fill="none" xmlns="http://www.w3.org/2000/svg"><path d="M15.3058 5.16862C16.7156 3.93153 18.8226 3.92631 20.2386 5.15639L27.8403 11.7604C28.8457 12.6338 29.3124 13.975 29.0665 15.2839L27.5666 23.2659C27.3961 24.1733 26.8968 24.9859 26.1644 25.5481L20.1068 30.1976C18.7601 31.2313 16.8869 31.2313 15.5402 30.1976L9.48267 25.5481C8.75025 24.9859 8.25097 24.1733 8.08046 23.2659L6.57874 15.2742C6.33402 13.9718 6.79482 12.637 7.79087 11.7629L15.3058 5.16862ZM13.2282 22.6723L10.1922 24.1814C10.2562 24.2441 10.3242 24.3032 10.396 24.3582L16.4535 29.0077C16.6454 29.155 16.8551 29.2673 17.0741 29.3446L17.0731 25.5364C16.8614 25.4699 16.6569 25.3724 16.4662 25.2439L16.3112 25.1303L13.2282 22.6723ZM27.6269 14.455L24.2907 15.9766C24.2922 16.0768 24.2877 16.1775 24.277 16.2782L24.2511 16.4588L23.4285 21.005C23.3343 21.5255 23.0776 21.9993 22.6985 22.3558L22.5507 22.4839L19.2307 25.1303C19.0278 25.292 18.8057 25.4155 18.5735 25.5008L18.5739 29.3443C18.7926 29.267 19.0019 29.1548 19.1935 29.0077L25.251 24.3582C25.6905 24.0209 25.9901 23.5333 26.0924 22.9889L27.5923 15.0068C27.6269 14.8227 27.638 14.6374 27.6269 14.455ZM17.7612 11.0823L13.0474 15.1337C12.8443 15.3119 12.7369 15.5717 12.7503 15.8313L12.7635 15.9423L13.2883 18.5797C13.3691 18.986 13.1053 19.3808 12.6991 19.4617C12.3267 19.5358 11.9639 19.3203 11.8437 18.9709L11.8171 18.8725L11.2908 16.2272C11.2699 16.1161 11.2572 16.0047 11.2523 15.8937L8.01733 14.4628C8.00798 14.6396 8.01944 14.8189 8.05294 14.9971L9.52516 22.8363L12.9444 21.1393L13.0386 21.1001C13.2613 21.0248 13.5011 21.0604 13.6896 21.1839C13.7391 21.1996 13.7879 21.2211 13.8345 21.2482L13.9262 21.3109L17.2462 23.9573C17.5265 24.1808 17.9001 24.2031 18.199 24.0244L18.2957 23.9573L21.6157 21.3109C21.7552 21.1997 21.8604 21.0469 21.9182 20.8725L21.9524 20.738L22.775 16.1917C22.8279 15.8996 22.747 15.6024 22.566 15.3883L22.4824 15.3019L17.7612 11.0823ZM18.5213 5.86285L18.52 9.74874L23.4845 14.1858C23.6064 14.2957 23.7155 14.4167 23.8111 14.5465L27.0415 13.073C26.9838 13.0099 26.9221 12.9497 26.8566 12.8928L19.2548 6.28876C19.0335 6.09651 18.7841 5.95455 18.5213 5.86285ZM17.0206 5.8687C16.7604 5.96176 16.5138 6.10424 16.2952 6.2961L8.78022 12.8904C8.71343 12.949 8.65066 13.0111 8.59204 13.0762L11.673 14.4394C11.7835 14.2799 11.9145 14.1323 12.0647 14.0005L17.0202 9.7413L17.0206 5.8687Z" fill="#404040"></path><path d="M18.2989 20.6165C18.2989 19.9571 17.7319 19.4215 17.0331 19.4215C16.3342 19.4215 15.7668 19.9571 15.7668 20.6165C15.7668 21.2763 16.3342 21.8115 17.0331 21.8115C17.7319 21.8115 18.2989 21.2763 18.2989 20.6165Z" fill="#FF00A4"></path><path d="M18.6423 17.8798L19.7668 13.8115H17.7126L16.3567 18.7266H17.4839C18.0297 18.7266 18.5059 18.3781 18.6423 17.8798Z" fill="#FF00A4"></path><path d="M26.1392 22.7713L27.7351 14.4065L24.2906 15.9675L23.3681 21.2295C23.2911 21.4591 23.2069 21.657 23.1155 21.8233C23.0241 21.9896 22.83 22.2123 22.5334 22.4914L18.4998 25.4582L18.4998 29.5053L25.5838 24.1135L25.59 24.1174L25.6031 24.0997L25.6139 24.0911L25.6114 24.0884C25.7928 23.8413 25.9122 23.6394 25.9698 23.4828C26.0295 23.3202 26.086 23.083 26.1392 22.7713Z" fill="#FF00A4"></path></svg>