<svg xmlns="http://www.w3.org/2000/svg" width="36" height="36" viewBox="0 0 36 36"><g fill="none" fill-rule="evenodd"><path stroke="#414141" stroke-width="1.5" d="M8 25c-1.105 0-2-.895-2-2V9c0-1.105.895-2 2-2h20c1.105 0 2 .895 2 2v14c0 1.105-.895 2-2 2h-9.757L14 29.243 9.757 25H8z"></path><path fill="#FF00A4" fill-rule="nonzero" d="M22 11c1.105 0 2 .895 2 2s-.895 2-2 2-2-.895-2-2 .895-2 2-2"></path><g fill="#404040"><path d="M4 2H12V3H4zM0 2H3V3H0zM0 0H10V1H0zM11 0H12V1H11z" transform="translate(12 17)"></path></g></g></svg>