<svg xmlns="http://www.w3.org/2000/svg" width="36" height="36" viewBox="0 0 36 36"><g fill="none" fill-rule="evenodd" transform="translate(6.81 6.898)"><path fill="#E6E6E6" d="M5.349.527h10.822v19.547H5.349z"></path><path stroke="#404040" stroke-linecap="round" d="M15.638 14.207v4.514c0 .907-.764 1.643-1.706 1.643H1.706C.764 20.364 0 19.628 0 18.721V1.643C0 .736.764 0 1.706 0h12.226c.942 0 1.706.736 1.706 1.643v6.835"></path><g stroke="#404040" stroke-width="1.5"><path d="M13.531 11.345l8.962-.049"></path><path stroke-linecap="round" d="M18.65 7.575l3.955 3.367a.5.5 0 0 1 0 .76l-3.985 3.412"></path></g><path fill="#FFF" stroke="#404040" stroke-linecap="round" stroke-width="1.5" d="M11.396 17.602v2.99a1.611 1.611 0 0 1-1.89 1.588l-8.263-1.447C0 20.47 0 19.51 0 18.721V1.86A1.594 1.594 0 0 1 1.917.298l8.236 1.702c1.133.349 1.243 1.136 1.243 2.075v13.526z"></path><ellipse cx="8.01" cy="11.39" fill="#FF00A4" rx="1" ry="1.09"></ellipse></g></svg>