<svg xmlns="http://www.w3.org/2000/svg" width="36" height="36" viewBox="0 0 36 36"><g fill="none" fill-rule="evenodd"><rect width="27.007" height="27.007" x="4.575" y="4.575" stroke="#404040" stroke-width="1.5" rx="13.504"></rect><path stroke="#404040" stroke-linecap="round" d="M22.77 9.27a9.934 9.934 0 0 0-4.691-1.169c-5.51 0-9.978 4.467-9.978 9.978a9.94 9.94 0 0 0 2.527 6.636m7.45 3.341c5.511 0 9.978-4.467 9.978-9.977a9.95 9.95 0 0 0-3.21-7.333"></path><path fill="#FF33B6" d="M18.079 21.458l-3.075 1.616a.5.5 0 0 1-.726-.527l.588-3.424-2.488-2.425a.5.5 0 0 1 .277-.853l3.438-.5 1.538-3.115a.5.5 0 0 1 .896 0l1.538 3.116 3.438.5a.5.5 0 0 1 .277.852l-2.488 2.425.587 3.424a.5.5 0 0 1-.725.527l-3.075-1.616z"></path></g></svg>