<svg width="36" height="37" viewBox="0 0 36 37" fill="none" xmlns="http://www.w3.org/2000/svg"><path d="M16.8162 8.02137L15.8815 7.07369C15.2024 6.39456 14.2813 6.01303 13.3209 6.01303H13.2624C12.4015 6.01303 11.6373 6.56389 11.365 7.38058L11.3209 7.51303C11.0007 8.47346 11.0752 9.52174 11.528 10.4272L11.8209 11.013H15L15 30.013H19L19 11.013L22.125 11.013L22.4179 10.4272C22.8706 9.52174 22.9451 8.47346 22.625 7.51303L22.5808 7.38058C22.3086 6.56389 21.5443 6.01303 20.6835 6.01303H20.625C19.6646 6.01303 18.7435 6.39456 18.0643 7.07369L17.125 8.01303L17.1277 8.01704C17.0855 8.01438 17.0429 8.01303 17 8.01303C16.938 8.01303 16.8767 8.01585 16.8162 8.02137Z" fill="#FF00A4"></path><path d="M25 11.013H29V15.013H25V11.013Z" fill="#E6E6E6"></path><path d="M25 16.013H28L28 30.013H25L25 16.013Z" fill="#E6E6E6"></path><path d="M24 17.013H25V19.013H24V17.013Z" fill="#404040"></path><path fill-rule="evenodd" clip-rule="evenodd" d="M10.8907 7.22246C11.231 6.20161 12.1863 5.51303 13.2624 5.51303H13.3209C14.4139 5.51303 15.4622 5.94724 16.2351 6.72014L16.9729 7.45798L17.7108 6.72014C18.4837 5.94724 19.532 5.51303 20.625 5.51303H20.6835C21.7596 5.51303 22.7149 6.20161 23.0552 7.22246L23.0993 7.35492C23.4165 8.3065 23.3912 9.33432 23.0358 10.263H28.5C29.4665 10.263 30.25 11.0465 30.25 12.013V16.263H29.25L29.25 29.513C29.25 30.4795 28.4665 31.263 27.5 31.263L9 31.263C8.0335 31.263 7.25 30.4795 7.25 29.513L7.25 16.263H6.25L6.25 12.013C6.25 11.0465 7.0335 10.263 8 10.263H10.9101C10.5547 9.33431 10.5294 8.3065 10.8465 7.35492L10.8907 7.22246ZM21.9707 10.2036L21.941 10.263L19.4877 10.263C19.4958 10.1808 19.5 10.0974 19.5 10.013C19.5 9.0211 18.9223 8.1641 18.085 7.76012L18.4179 7.42724C19.0033 6.84188 19.7972 6.51303 20.625 6.51303H20.6835C21.3291 6.51303 21.9023 6.92618 22.1065 7.53869L22.1507 7.67115C22.4289 8.50578 22.3641 9.41674 21.9707 10.2036ZM15.8787 7.77798C15.0611 8.18898 14.5 9.03549 14.5 10.013C14.5 10.0974 14.5042 10.1808 14.5123 10.263H12.0049L11.9752 10.2036C11.5818 9.41674 11.517 8.50578 11.7952 7.67114L11.8394 7.53869C12.0436 6.92618 12.6168 6.51303 13.2624 6.51303H13.3209C14.1487 6.51303 14.9426 6.84188 15.528 7.42724L15.8787 7.77798ZM15.5207 10.263C15.5071 10.1817 15.5 10.0982 15.5 10.013C15.5 9.1846 16.1716 8.51303 17 8.51303C17.8284 8.51303 18.5 9.1846 18.5 10.013C18.5 10.0982 18.4929 10.1817 18.4793 10.263H15.5207ZM25 20.013H24V29.763L9 29.763C8.86193 29.763 8.75 29.6511 8.75 29.513L8.75 16.263L27.75 16.263L27.75 29.513C27.75 29.6511 27.6381 29.763 27.5 29.763H25V20.013ZM7.75 12.013L7.75 14.763L28.75 14.763V12.013C28.75 11.875 28.6381 11.763 28.5 11.763L8 11.763C7.86193 11.763 7.75 11.875 7.75 12.013Z" fill="#404040"></path></svg>