<svg xmlns="http://www.w3.org/2000/svg" width="36" height="36" viewBox="0 0 36 36"><g fill="none" fill-rule="evenodd"><path fill="#FFF" stroke="#404040" stroke-width="1.5" d="M10.325 4.497h15.623a2.18 2.18 0 0 1 2.18 2.18V31.47c0 .024-.02.044-.044.044h-17.76a2.18 2.18 0 0 1-2.18-2.18V6.677a2.18 2.18 0 0 1 2.18-2.18z"></path><g transform="translate(11.608 8.026)"><rect width="3.344" height="3.344" fill="#FF33B6" rx=".044"></rect><g transform="translate(0 13.002)"><path fill="#404040" d="M11.493 2.23h1.977v1h-1.977zM9.517.495h3.953v1H9.517zM5.442 2.23h5.297v1H5.442zM5.442.495h3.416v1H5.442z"></path><rect width="3.344" height="3.344" stroke="#404040" rx=".044"></rect></g><g transform="translate(0 6.501)"><path fill="#404040" d="M11.493 2.23h1.977v1h-1.977zM9.517.495h3.953v1H9.517zM5.442 2.23h5.297v1H5.442zM5.442.495h3.416v1H5.442z"></path><rect width="3.344" height="3.344" stroke="#404040" rx=".044"></rect></g><path fill="#404040" d="M11.493 2.23h1.977v1h-1.977zM9.517.495h3.953v1H9.517zM5.442 2.23h5.297v1H5.442zM5.442.495h3.416v1H5.442z"></path><rect width="3.344" height="3.344" stroke="#404040" rx=".044"></rect></g><path fill="#F2F2F2" stroke="#404040" d="M29.139 27.772c.318 0 .575.258.575.576v1.428a2.004 2.004 0 0 1-2.003 2.003H10.938a1.997 1.997 0 0 1-1.398-.568l.44-.001c.686 0 1.243-.623 1.243-1.39 0-.21.072-1.48.04-2.048h17.876z"></path></g></svg>