<svg xmlns="http://www.w3.org/2000/svg" width="36" height="36" viewBox="0 0 36 36"><g fill="none" fill-rule="evenodd"><path fill="#FF00A4" d="M6 16v6h24v-6a2 2 0 0 0-.8-1.6l-9.4-7.05a3 3 0 0 0-3.6 0L6.8 14.4A2 2 0 0 0 6 16z"></path><path stroke="#404040" stroke-linejoin="round" stroke-width="1.5" d="M6 16v12a2 2 0 0 0 2 2h20a2 2 0 0 0 2-2V16a2 2 0 0 0-.8-1.6l-9.4-7.05a3 3 0 0 0-3.6 0L6.8 14.4A2 2 0 0 0 6 16z"></path><rect width="17" height="13" x="9.5" y="9.5" fill="#FFF" stroke="#404040" rx="1"></rect><g fill="#404040"><path d="M16 15h8v1h-8zM12 15h3v1h-3zM12 13h10v1H12zM23 13h1v1h-1z"></path></g><path fill="#FFF" d="M6.5 17l8.5 5 3-1 3 1 8.5-5v9a2 2 0 0 1-2 2h-19a2 2 0 0 1-2-2v-9z"></path><path stroke="#404040" stroke-linejoin="round" d="M30 27.897c0-1-.702-1.437-1.37-1.78l-9.333-4.786a3 3 0 0 0-2.748.004L7.3 26.121C6.32 26.628 6 26.897 6 27.897"></path><path stroke="#404040" stroke-width="1.5" d="M6 17l9 5M30 17l-9 5"></path></g></svg>