<svg width="36" height="37" viewBox="0 0 36 37" fill="none" xmlns="http://www.w3.org/2000/svg"><path d="M8 11.009H4L4 25.009H8L9.5 23.509L9.5 12.509L8 11.009Z" fill="#E6E6E6"></path><path d="M15 15.509C15 14.1283 16.1193 13.009 17.5 13.009C18.8807 13.009 20 14.1283 20 15.509C20 16.8897 18.8807 18.009 17.5 18.009C16.1193 18.009 15 16.8897 15 15.509Z" fill="#FF00A4"></path><path d="M22 20.509C22 19.1283 23.1193 18.009 24.5 18.009C25.8807 18.009 27 19.1283 27 20.509C27 21.8897 25.8807 23.009 24.5 23.009C23.1193 23.009 22 21.8897 22 20.509Z" fill="#FF00A4"></path><path fill-rule="evenodd" clip-rule="evenodd" d="M9 17.009V14.009H10V17.009H9ZM9 22.009V19.009H10V22.009H9Z" fill="#404040"></path><path fill-rule="evenodd" clip-rule="evenodd" d="M3.25 11.009C3.25 10.5948 3.58579 10.259 4 10.259H8C8.19891 10.259 8.38968 10.3381 8.53033 10.4787L9.5 11.4484L10.4697 10.4787C10.6103 10.3381 10.8011 10.259 11 10.259L32 10.259C32.4142 10.259 32.75 10.5948 32.75 11.009V25.009C32.75 25.4232 32.4142 25.759 32 25.759L11 25.759C10.8011 25.759 10.6103 25.68 10.4697 25.5394L9.5 24.5697L8.53033 25.5394C8.38968 25.68 8.19891 25.759 8 25.759H4C3.58579 25.759 3.25 25.4232 3.25 25.009L3.25 11.009ZM4.75 11.759L4.75 24.259H7.68934L8.96967 22.9787C9.26256 22.6858 9.73744 22.6858 10.0303 22.9787L11.3107 24.259L31.25 24.259L31.25 11.759L11.3107 11.759L10.0303 13.0394C9.73744 13.3323 9.26256 13.3323 8.96967 13.0394L7.68934 11.759H4.75Z" fill="#404040"></path><path fill-rule="evenodd" clip-rule="evenodd" d="M25.5303 13.4787C25.8232 13.7716 25.8232 14.2465 25.5303 14.5394L17.5303 22.5394C17.2374 22.8323 16.7626 22.8323 16.4697 22.5394C16.1768 22.2465 16.1768 21.7716 16.4697 21.4787L24.4697 13.4787C24.7626 13.1858 25.2374 13.1858 25.5303 13.4787Z" fill="#404040"></path></svg>