<svg xmlns="http://www.w3.org/2000/svg" width="36" height="36" viewBox="0 0 36 36"><g fill="none" fill-rule="evenodd"><path fill="#FF00A4" fill-rule="nonzero" d="M23 4h-2.993L20 17h3z"></path><path fill="#F2F2F2" d="M6 17h3v15H8a2 2 0 0 1-2-2V17z"></path><path fill="#E6E6E6" d="M17 17v-5H8.5a2.5 2.5 0 1 0 0 5H17z"></path><path stroke="#404040" stroke-linejoin="round" stroke-width="1.5" d="M6 14v15a3 3 0 0 0 3 3h16a1 1 0 0 0 1-1V18a1 1 0 0 0-1-1H8.5a2.5 2.5 0 1 1 0-5H17"></path><path stroke="#404040" d="M26 21h-6a3 3 0 0 0-3 3v1a3 3 0 0 0 3 3h6"></path><path fill="#FF00A4" fill-rule="nonzero" d="M22 24.5c0 .827-.673 1.5-1.5 1.5s-1.5-.673-1.5-1.5.673-1.5 1.5-1.5 1.5.673 1.5 1.5z"></path><g><path stroke="#404040" stroke-width="1.5" d="M17 11v6V5a1 1 0 0 1 1-1h11a1 1 0 0 1 1 1v17a1 1 0 0 1-1 1h-3"></path><path fill="#404040" d="M25 6h1v4h-1zM25 11h1v2h-1z"></path></g></g></svg>