<svg xmlns="http://www.w3.org/2000/svg" width="24" height="24" viewBox="0 0 24 24" style="transform: scaleX(-1);"><g fill="none" fill-rule="nonzero"><path fill="#404040" fill-opacity="0" d="M0 0h24v24H0z"></path><path fill="#404040" d="M10 23a2 2 0 1 1 0-4 2 2 0 0 1 0 4zm7 0a2 2 0 1 1 0-4 2 2 0 0 1 0 4zM4.208 4H2a1 1 0 1 1 0-2h3a1 1 0 0 1 .973.771L6.733 6H21a1 1 0 0 1 .977 1.212l-1.596 7.373A2.995 2.995 0 0 1 17.4 17H9.7c-1.454.028-2.718-.99-2.993-2.381L4.208 4zm2.995 4l1.458 6.195c.094.475.516.814 1.019.805h7.74c.483.01.905-.33 1.003-.822L19.76 8H7.203z"></path></g></svg>